G04*
G04 #@! TF.GenerationSoftware,Altium Limited,Altium Designer,22.5.1 (42)*
G04*
G04 Layer_Color=128*
%FSLAX44Y44*%
%MOMM*%
G71*
G04*
G04 #@! TF.SameCoordinates,3542A28A-F779-4FD2-A1C7-180016CA1DCA*
G04*
G04*
G04 #@! TF.FilePolarity,Positive*
G04*
G01*
G75*
%ADD35C,0.0508*%
D35*
X980970Y807990D02*
X991170D01*
X986070Y802890D02*
Y813090D01*
X890970Y807990D02*
X901170D01*
X896070Y802890D02*
Y813090D01*
X920970Y768590D02*
X931170D01*
X926070Y763490D02*
Y773690D01*
X950970Y768590D02*
X961170D01*
X956070Y763490D02*
Y773690D01*
X950970Y798590D02*
X961170D01*
X956070Y793490D02*
Y803690D01*
X920970Y798590D02*
X931170D01*
X926070Y793490D02*
Y803690D01*
X744940Y749410D02*
X757640D01*
X751290Y743060D02*
Y755760D01*
X834940Y749410D02*
X847640D01*
X841290Y743060D02*
Y755760D01*
X776190Y769010D02*
X786390D01*
X781290Y763910D02*
Y774110D01*
X806190Y769010D02*
X816390D01*
X811290Y763910D02*
Y774110D01*
X744940Y820530D02*
X757640D01*
X751290Y814180D02*
Y826880D01*
X834940Y820530D02*
X847640D01*
X841290Y814180D02*
Y826880D01*
X776190Y840130D02*
X786390D01*
X781290Y835030D02*
Y845230D01*
X806190Y840130D02*
X816390D01*
X811290Y835030D02*
Y845230D01*
X1067810Y508480D02*
X1078010D01*
X1072910Y503380D02*
Y513580D01*
X1067810Y538480D02*
X1078010D01*
X1072910Y533380D02*
Y543580D01*
X1067810Y568480D02*
X1078010D01*
X1072910Y563380D02*
Y573580D01*
X1067810Y478480D02*
X1078010D01*
X1072910Y473380D02*
Y483580D01*
X1037810Y478480D02*
X1048010D01*
X1042910Y473380D02*
Y483580D01*
X1037810Y568480D02*
X1048010D01*
X1042910Y563380D02*
Y573580D01*
X1037810Y538480D02*
X1048010D01*
X1042910Y533380D02*
Y543580D01*
X1037810Y508480D02*
X1048010D01*
X1042910Y503380D02*
Y513580D01*
X1077210Y628480D02*
X1087410D01*
X1082310Y623380D02*
Y633580D01*
X1077210Y448480D02*
X1087410D01*
X1082310Y443380D02*
Y453580D01*
X1037810Y598480D02*
X1048010D01*
X1042910Y593380D02*
Y603580D01*
X1067810Y598480D02*
X1078010D01*
X1072910Y593380D02*
Y603580D01*
X572660Y791360D02*
X590660D01*
X581660Y782360D02*
Y800360D01*
X572660Y848360D02*
X590660D01*
X581660Y839360D02*
Y857360D01*
X629660Y791360D02*
X647660D01*
X638660Y782360D02*
Y800360D01*
X629660Y848360D02*
X647660D01*
X638660Y839360D02*
Y857360D01*
X626910Y739660D02*
X656910D01*
X641910Y724660D02*
Y754660D01*
X626910Y900060D02*
X656910D01*
X641910Y885060D02*
Y915060D01*
X1214470Y607876D02*
X1255470D01*
X1234970Y587376D02*
Y628376D01*
X1169246Y622811D02*
X1192246D01*
X1180746Y611311D02*
Y634311D01*
X976500Y1053866D02*
X1017500D01*
X997000Y1033366D02*
Y1074366D01*
X970565Y999642D02*
X993565D01*
X982065Y988142D02*
Y1011142D01*
X1014493Y947251D02*
X1027493D01*
X1020993Y940751D02*
Y953751D01*
X1048073Y883561D02*
X1061073D01*
X1054573Y877061D02*
Y890061D01*
X1059733Y861446D02*
X1072733D01*
X1066233Y854946D02*
Y867946D01*
X1071392Y839332D02*
X1084392D01*
X1077892Y832832D02*
Y845832D01*
X1083052Y817217D02*
X1096052D01*
X1089552Y810717D02*
Y823717D01*
X1106371Y772988D02*
X1119371D01*
X1112871Y766488D02*
Y779488D01*
X1118031Y750874D02*
X1131031D01*
X1124531Y744374D02*
Y757374D01*
X1129691Y728759D02*
X1142691D01*
X1136191Y722259D02*
Y735259D01*
X1153010Y684530D02*
X1166010D01*
X1159510Y678030D02*
Y691030D01*
X1031983Y914079D02*
X1044983D01*
X1038483Y907579D02*
Y920579D01*
X1094712Y795103D02*
X1107712D01*
X1101212Y788603D02*
Y801603D01*
X1141350Y706645D02*
X1154350D01*
X1147850Y700145D02*
Y713145D01*
X1036608Y958910D02*
X1049608D01*
X1043108Y952410D02*
Y965410D01*
X1070188Y895220D02*
X1083187D01*
X1076687Y888720D02*
Y901720D01*
X1081847Y873106D02*
X1094847D01*
X1088347Y866606D02*
Y879606D01*
X1093507Y850991D02*
X1106507D01*
X1100007Y844491D02*
Y857491D01*
X1105167Y828877D02*
X1118167D01*
X1111667Y822377D02*
Y835377D01*
X1128486Y784648D02*
X1141486D01*
X1134986Y778148D02*
Y791148D01*
X1140146Y762533D02*
X1153146D01*
X1146646Y756033D02*
Y769033D01*
X1151805Y740419D02*
X1164805D01*
X1158305Y733919D02*
Y746919D01*
X1175125Y696190D02*
X1188124D01*
X1181625Y689690D02*
Y702690D01*
X1054097Y925738D02*
X1067097D01*
X1060597Y919238D02*
Y932238D01*
X1116826Y806762D02*
X1129826D01*
X1123326Y800262D02*
Y813262D01*
X1163465Y718304D02*
X1176465D01*
X1169965Y711804D02*
Y724804D01*
X1058722Y970570D02*
X1071722D01*
X1065222Y964070D02*
Y977070D01*
X1092302Y906880D02*
X1105302D01*
X1098802Y900380D02*
Y913380D01*
X1103962Y884765D02*
X1116962D01*
X1110462Y878266D02*
Y891265D01*
X1115621Y862651D02*
X1128621D01*
X1122121Y856151D02*
Y869151D01*
X1127281Y840536D02*
X1140281D01*
X1133781Y834036D02*
Y847037D01*
X1150600Y796307D02*
X1163600D01*
X1157100Y789807D02*
Y802807D01*
X1162260Y774193D02*
X1175260D01*
X1168760Y767693D02*
Y780693D01*
X1173920Y752078D02*
X1186920D01*
X1180420Y745578D02*
Y758578D01*
X1197239Y707849D02*
X1210239D01*
X1203739Y701349D02*
Y714349D01*
X1076212Y937398D02*
X1089212D01*
X1082712Y930898D02*
Y943898D01*
X1138941Y818422D02*
X1151941D01*
X1145441Y811922D02*
Y824922D01*
X1185579Y729964D02*
X1198579D01*
X1192079Y723464D02*
Y736464D01*
X1080837Y982230D02*
X1093837D01*
X1087337Y975730D02*
Y988729D01*
X1114417Y918540D02*
X1127417D01*
X1120917Y912040D02*
Y925040D01*
X1126076Y896425D02*
X1139076D01*
X1132576Y889925D02*
Y902925D01*
X1137736Y874311D02*
X1150736D01*
X1144236Y867811D02*
Y880811D01*
X1149396Y852196D02*
X1162396D01*
X1155896Y845696D02*
Y858696D01*
X1172715Y807967D02*
X1185715D01*
X1179215Y801467D02*
Y814467D01*
X1184375Y785853D02*
X1197374D01*
X1190875Y779353D02*
Y792353D01*
X1196034Y763738D02*
X1209034D01*
X1202534Y757238D02*
Y770238D01*
X1219354Y719509D02*
X1232354D01*
X1225854Y713009D02*
Y726009D01*
X1098326Y949058D02*
X1111326D01*
X1104826Y942558D02*
Y955558D01*
X1161055Y830082D02*
X1174055D01*
X1167555Y823582D02*
Y836582D01*
X1207694Y741624D02*
X1220694D01*
X1214194Y735124D02*
Y748123D01*
X1041654Y835660D02*
X1048766D01*
X1045210Y832104D02*
Y839216D01*
X1026414Y835660D02*
X1033526D01*
X1029970Y832104D02*
Y839216D01*
M02*
